# AST/ASF file generated using VICON BodyLanguage
# -----------------------------------------------
:version 1.10
:name VICON
:units
  mass 1.0
  length 0.45
  angle deg
:documentation
   .ast/.asf automatically generated from VICON data using
   VICON BodyBuilder and BodyLanguage model FoxedUp or BRILLIANT.MOD
:root
   order TX TY TZ RX RY RZ
   axis XYZ
   position 0 0 0  
   orientation 0 0 0 
:bonedata
  begin
     id 1 
     name lhipjoint
     direction 0.693937 -0.600361 0.397515 
     length 2.37164 
     axis 0 0 0  XYZ
  end
  begin
     id 2 
     name lfemur
     direction 0.34202 -0.939693 0  
     length 6.18497  
     axis 0 0 20  XYZ
    dof rx ry rz
    limits (-160.0 20.0)
           (-70.0 70.0)
           (-60.0 70.0)
  end
  begin
     id 3 
     name ltibia
     direction 0.34202 -0.939693 0   
     length 6.91601   
     axis 0 0 20   XYZ
    dof rx
    limits (-10.0 170.0)
  end
  begin
     id 4 
     name lfoot
     direction 0.0978718 -0.2689 0.958182   
     length 1.81453   
     axis -90 7.62852e-016 20   XYZ
    dof rx rz
    limits (-45.0 90.0)
           (-70.0 20.0)
  end
  begin
     id 5 
     name ltoes
     direction 1.53569e-011 -4.21951e-011 1   
     length 0.912052   
     axis -90 7.62852e-016 20   XYZ
    dof rx
    limits (-90.0 20.0)
  end
  begin
     id 6 
     name rhipjoint
     direction -0.643996 -0.637876 0.422354   
     length 2.23216  
     axis 0 0 0  XYZ 
  end
  begin
     id 7 
     name rfemur
     direction -0.34202 -0.939693 0   
     length 6.15404   
     axis 0 0 -20   XYZ
    dof rx ry rz
    limits (-160.0 20.0)
           (-70.0 70.0)
           (-70.0 60.0)
  end
  begin
     id 8 
     name rtibia
     direction -0.34202 -0.939693 0   
     length 6.86744   
     axis 0 0 -20   XYZ
    dof rx
    limits (-10.0 170.0)
 end
 begin
     id 9 
     name rfoot
     direction -0.118701 -0.326127 0.937844   
     length 1.9243  
     axis -90 -7.62852e-016 -20   XYZ
    dof rx rz
    limits (-45.0 90.0)
           (-20.0 70.0)
  end
  begin
     id 10 
     name rtoes
     direction -1.5356e-011 -4.2181e-011 1   
     length 0.958865   
     axis -90 -7.62852e-016 -20   XYZ
    dof rx
    limits (-90.0 20.0)
  end
  begin
     id 11 
     name lowerback
     direction 0.0310826 0.968686 -0.246334   
     length 2.00021   
     axis 0 0 0   XYZ
    dof rx ry rz
    limits (-20.0 45.0)
           (-30.0 30.0)
           (-30.0 30.0)
  end
  begin
     id 12 
     name upperback
     direction -0.0152834 0.999474 -0.0286152   
     length 2.03728   
     axis 0 0 0   XYZ
    dof rx ry rz
    limits (-20.0 45.0)
           (-30.0 30.0)
           (-30.0 30.0)
  end
  begin
     id 13 
     name thorax
     direction -0.0323701 0.996236 0.0804149   
     length 2.16   
     axis 0 0 0   XYZ
    dof rx ry rz
    limits (-20.0 45.0)
           (-30.0 30.0)
           (-30.0 30.0)
  end
  begin
     id 14 
     name lowerneck
     direction 0.0307935 0.982251 0.185027   
     length 1.43558   
     axis 0 0 0   XYZ
    dof rx ry rz
    limits (-20.0 45.0)
           (-30.0 30.0)
           (-30.0 30.0)
  end
  begin
     id 15 
     name upperneck
     direction -0.0927153 0.994775 0.0427454   
     length 1.44603   
     axis 0 0 0   XYZ
    dof rx ry rz
    limits (-20.0 45.0)
           (-30.0 30.0)
           (-30.0 30.0)
  end
  begin
     id 16
     name head
     direction -0.0341265 0.999406 -0.00472033  
     length 1.45931  
     axis 0 0 0   XYZ
    dof rx ry rz
    limits (-20.0 45.0)
           (-30.0 30.0)
           (-30.0 30.0)
  end
  begin
     id 17 
     name lclavicle
     direction 0.820755 0.555306 -0.134151  
     length 2.66075  
     axis 0 0 0   XYZ
    dof ry rz
    limits (-20.0 10.0)
           (0.0 20.0)
  end
  begin
     id 18 
     name lhumerus
     direction 1 -4.48971e-011 5.24853e-027   
     length 5.0546   
     axis -180 -30 -90   XYZ
    dof rx ry rz
    limits (-60.0 90.0)
           (-90.0 90.0)
           (-90.0 90.0)
  end
  begin
     id 19
     name lradius
     direction 1 -4.48971e-011 2.76575e-028   
     length 3.39013   
     axis -180 -30 -90   XYZ
    dof rx
    limits (-10.0 170.0)
  end
  begin
     id 20
     name lwrist
     direction 1 -4.48939e-011 -2.27826e-027   
     length 1.69507   
     axis 2.17013e-015 90 90   XYZ
    dof ry
    limits (-180.0 0.0)
 end
  begin
     id 21 
     name lhand
     direction 1 -4.49009e-011 -4.55652e-027   
     length 0.572425   
     axis 2.90745e-015 90 90   XYZ
    dof rx rz
    limits (-90.0 90.0)
           (-45.0 45.0)
  end
  begin
     id 22 
     name lfingers
     direction 1 -4.48955e-011 -9.11303e-027   
     length 0.461504   
     axis 5.81489e-015 90 90   XYZ
    dof rx
    limits (0.0 90.0)
  end
  begin
     id 23
     name lthumb
     direction 0.707107 -6.34929e-011 0.707107   
     length 0.66263   
     axis -90 45 2.85299e-015   XYZ
    dof rx rz
    limits (-45.0 45.0)
           (-45.0 45.0)
  end
  begin
     id 24 
     name rclavicle
     direction -0.754477 0.632921 -0.173712   
     length 2.73081  
     axis 0 0 0   XYZ 
    dof ry rz
    limits (-10.0 20.0)
           (-20.0 0.0)
  end
  begin
     id 25 
     name rhumerus
     direction -1 -4.48969e-011 5.1496e-027  
     length 5.0701   
     axis -180 30 90   XYZ
    dof rx ry rz
    limits (-90.0 60.0)
           (-90.0 90.0)
           (-90.0 90.0)
  end
  begin
     id 26 
     name rradius
     direction -1 -4.48967e-011 -7.15624e-028   
     length 3.14957   
     axis -180 30 90   XYZ
    dof rx
    limits (-10.0 170.0)
  end
  begin
     id 27 
     name rwrist
     direction -1 -4.48938e-011 -2.27826e-027   
     length 1.57479   
     axis 2.17013e-015 -90 -90   XYZ
    dof ry
    limits (-180.0 0.0)
  end
  begin
     id 28
     name rhand
     direction -1 -4.49008e-011 -4.55652e-027   
     length 0.718191   
     axis 2.90745e-015 -90 -90   XYZ
    dof rx rz
    limits (-90.0 90.0)
           (-45.0 45.0)
  end
  begin
     id 29
     name rfingers
     direction -1 -4.48953e-011 -9.11303e-027   
     length 0.579024   
     axis 5.81489e-015 -90 -90   XYZ
    dof rx
    limits (0.0 90.0)
  end
  begin
     id 30
     name rthumb
     direction -0.707107 -6.34937e-011 0.707107   
     length 0.831366   
     axis -90 -45 -2.85299e-015   XYZ
    dof rx rz
    limits (-45.0 45.0)
           (-45.0 45.0)
  end
:hierarchy
  begin
    root lhipjoint rhipjoint lowerback
    lhipjoint lfemur
    lfemur ltibia
    ltibia lfoot
    lfoot ltoes
    rhipjoint rfemur
    rfemur rtibia
    rtibia rfoot
    rfoot rtoes
    lowerback upperback
    upperback thorax
    thorax lowerneck lclavicle rclavicle
    lowerneck upperneck
    upperneck head
    lclavicle lhumerus
    lhumerus lradius
    lradius lwrist
    lwrist lhand lthumb
    lhand lfingers
    rclavicle rhumerus
    rhumerus rradius
    rradius rwrist
    rwrist rhand rthumb
    rhand rfingers
  end

#!OML:ASF H:\Male1\Project 1\Capture day 1\Session 1\Male1.ASF
:FULLY-SPECIFIED
:DEGREES
1
root 30.2908 15.3783 -0.468766 -3.42324 -49.1703 1.12194
lowerback 6.3389 0.301132 -3.20792
upperback 4.1431 0.181031 -0.74223
thorax 0.709313 0.0133841 1.02515
lowerneck -3.14435 -9.4418 -3.43969
upperneck 6.00936 -12.874 5.83226
head 3.16491 -6.31415 1.95444
rclavicle -1.69464e-014 5.56597e-015
rhumerus -35.9236 21.7697 -96.8443
rradius 38.0549
rwrist -28.3784
rhand -16.416 -2.90083
rfingers 7.12502
rthumb 9.79879 -32.6528
lclavicle -1.69464e-014 5.56597e-015
lhumerus -32.9686 -9.1161 86.6861
lradius 31.1769
lwrist -1.04912
lhand -17.0287 3.6086
lfingers 7.12502
lthumb 9.20765 33.3876
rfemur -7.96968 17.9277 19.0219
rtibia 27.5108
rfoot -32.3697 -32.6433
rtoes -12.7112
lfemur 0.477342 -14.7102 -22.7107
ltibia 23.0396
lfoot -25.8331 27.3214
ltoes 2.51176
2
root 30.2919 15.3826 -0.47243 -2.98988 -49.2284 0.705264
lowerback 6.27361 0.335867 -2.93297
upperback 4.07016 0.243943 -0.708398
thorax 0.667551 0.0517658 0.9026
lowerneck -3.02258 -9.47777 -3.31608
upperneck 5.98622 -12.9295 5.81866
head 3.1261 -6.34234 1.93315
rclavicle 7.31528e-014 -2.26615e-014
rhumerus -35.8896 21.5587 -96.9484
rradius 38.0463
rwrist -28.4233
rhand -15.3594 -3.29488
rfingers 7.12502
rthumb 10.8181 -32.9963
lclavicle 7.31528e-014 -2.26615e-014
lhumerus -33.2413 -9.26429 86.6676
lradius 31.3306
lwrist -0.939439
lhand -16.9873 3.48505
lfingers 7.12502
lthumb 9.24756 33.2622
rfemur -7.89835 18.2103 19.323
rtibia 27.0878
rfoot -32.4007 -32.8216
rtoes -12.2059
lfemur 0.125748 -14.7016 -22.3553
ltibia 23.438
lfoot -25.9485 27.2068
ltoes 2.96546
3
root 30.2904 15.3908 -0.478534 -2.03632 -49.3716 -0.25801
lowerback 6.08478 0.343616 -2.45978
upperback 4.02298 0.285993 -0.472533
thorax 0.721696 0.0798746 0.878218
lowerneck -3.08339 -9.46253 -3.34868
upperneck 5.99345 -12.9031 5.78157
head 3.13787 -6.32952 1.92475
rclavicle 1.41535e-013 -2.66371e-014
rhumerus -35.714 21.85 -96.9638
rradius 37.9974
rwrist -28.9951
rhand -15.6889 -3.29509
rfingers 7.12502
rthumb 10.5003 -33.0128
lclavicle 1.41535e-013 -2.66371e-014
lhumerus -33.3813 -9.14109 86.6883
lradius 31.4033
lwrist -0.898481
lhand -16.9792 3.51837
lfingers 7.12502
lthumb 9.25542 33.2952
rfemur -8.02646 18.7486 20.0265
rtibia 26.8274
rfoot -32.6879 -33.1038
rtoes -11.7712
lfemur -0.289291 -14.5732 -21.5338
ltibia 23.7108
lfoot -26.0375 27.0229
ltoes 3.43795
4
root 30.2981 15.3903 -0.479568 -2.11314 -49.2932 -0.149852
lowerback 6.19353 0.428173 -2.44703
upperback 4.00128 0.394974 -0.544156
thorax 0.635906 0.136452 0.79102
lowerneck -3.12509 -9.56674 -3.26985
upperneck 6.08461 -13.0558 5.82187
head 3.18207 -6.40039 1.9124
rclavicle -3.63776e-014 6.36111e-015
rhumerus -35.7923 21.7496 -97.0143
rradius 38.2883
rwrist -29.4729
rhand -17.2298 -4.64085
rfingers 7.12502
rthumb 9.01359 -34.4283
lclavicle -3.63776e-014 6.36111e-015
lhumerus -33.5733 -9.54163 86.7546
lradius 31.6403
lwrist -0.762138
lhand -17.0307 3.7167
lfingers 7.12502
lthumb 9.20573 33.4958
rfemur -7.9323 18.7517 19.9255
rtibia 26.6078
rfoot -32.5613 -33.2832
rtoes -11.9296
lfemur -0.474255 -14.5893 -21.6126
ltibia 23.9502
lfoot -26.1556 26.9952
ltoes 3.29194
5
root 30.3067 15.3924 -0.480457 -1.91272 -49.2633 -0.324643
lowerback 6.23947 0.469438 -2.23197
upperback 3.97768 0.458989 -0.569242
thorax 0.585376 0.173447 0.640845
lowerneck -3.16944 -9.6243 -3.19525
upperneck 6.12359 -13.1409 5.8459
head 3.20417 -6.43894 1.9001
rclavicle -8.64713e-014 2.5842e-014
rhumerus -35.8531 21.8274 -97.1615
rradius 38.5745
rwrist -30.1154
rhand -18.264 -5.4985
rfingers 7.12502
rthumb 8.01556 -35.3265
lclavicle -8.64713e-014 2.5842e-014
lhumerus -33.7966 -9.86767 86.7975
lradius 31.9644
lwrist -0.537938
lhand -17.1049 3.98176
lfingers 7.12502
lthumb 9.13415 33.764
rfemur -7.95803 18.7594 19.994
rtibia 26.4389
rfoot -32.4696 -33.3636
rtoes -11.8986
lfemur -0.71101 -14.5738 -21.4674
ltibia 24.149
lfoot -26.2473 26.9075
ltoes 3.53923
6
root 30.3179 15.3938 -0.479745 -1.82482 -49.2119 -0.37826
lowerback 6.31032 0.504079 -2.04558
upperback 3.97538 0.511942 -0.634052
thorax 0.544057 0.2042 0.466338
lowerneck -3.23046 -9.67563 -3.11251
upperneck 6.1555 -13.2184 5.88005
head 3.22676 -6.47293 1.88943
rclavicle 4.34344e-014 -1.78906e-014
rhumerus -35.9864 22.0084 -97.3847
rradius 39.0147
rwrist -31.0391
rhand -19.405 -6.37716
rfingers 7.12502
rthumb 6.91418 -36.2442
lclavicle 4.34344e-014 -1.78906e-014
lhumerus -34.0557 -10.2937 86.8606
lradius 32.4496
lwrist -0.184265
lhand -17.226 4.47045
lfingers 7.12502
lthumb 9.01723 34.2577
rfemur -8.05062 18.616 19.95
rtibia 26.4234
rfoot -32.3311 -33.3283
rtoes -11.9813
lfemur -0.867274 -14.5307 -21.4204
ltibia 24.2155
lfoot -26.2451 26.8223
ltoes 3.70945
